<?xml version="1.0" encoding="UTF-8" standalone="no"?>
<!DOCTYPE svg PUBLIC "-//W3C//DTD SVG 1.1//EN"
 "http://www.w3.org/Graphics/SVG/1.1/DTD/svg11.dtd">
<!-- Generated by graphviz version 2.47.0 (20210316.0004)
 -->
<!-- Title: dependencies Pages: 1 -->
<svg width="504pt" height="211pt"
 viewBox="0.00 0.00 504.00 211.00" xmlns="http://www.w3.org/2000/svg" xmlns:xlink="http://www.w3.org/1999/xlink">
<g id="graph0" class="graph" transform="scale(1 1) rotate(0) translate(4 207)">
<title>dependencies</title>
<polygon fill="white" stroke="transparent" points="-4,4 -4,-207 500,-207 500,4 -4,4"/>
<text text-anchor="start" x="227.01" y="-42.4" font-family="Times-12" font-weight="bold" font-size="14.00">Legend</text>
<polygon fill="#ffffb3" stroke="transparent" points="14,-10 14,-30 34,-30 34,-10 14,-10"/>
<text text-anchor="start" x="37.63" y="-15.4" font-family="Times-12" font-size="14.00"> &#160;Declarations</text>
<polygon fill="#8dd3c7" stroke="transparent" points="127,-10 127,-30 147,-30 147,-10 127,-10"/>
<text text-anchor="start" x="150.73" y="-15.4" font-family="Times-12" font-size="14.00"> &#160;Module</text>
<polygon fill="#80b1d3" stroke="transparent" points="213,-10 213,-30 233,-30 233,-10 213,-10"/>
<text text-anchor="start" x="236.78" y="-15.4" font-family="Times-12" font-size="14.00"> &#160;Bootstrap</text>
<polygon fill="#fdb462" stroke="transparent" points="310,-10 310,-30 330,-30 330,-10 310,-10"/>
<text text-anchor="start" x="333.67" y="-15.4" font-family="Times-12" font-size="14.00"> &#160;Providers</text>
<polygon fill="#fb8072" stroke="transparent" points="406,-10 406,-30 426,-30 426,-10 406,-10"/>
<text text-anchor="start" x="429.73" y="-15.4" font-family="Times-12" font-size="14.00"> &#160;Exports</text>
<g id="clust1" class="cluster">
<title>cluster_BidsModule</title>
<polygon fill="none" stroke="black" stroke-dasharray="1,5" points="65,-70 65,-195 431,-195 431,-70 65,-70"/>
</g>
<g id="clust6" class="cluster">
<title>cluster_BidsModule_providers</title>
<polygon fill="none" stroke="black" points="291,-78 291,-130 423,-130 423,-78 291,-78"/>
</g>
<g id="clust3" class="cluster">
<title>cluster_BidsModule_imports</title>
<polygon fill="none" stroke="black" points="73,-78 73,-130 283,-130 283,-78 73,-78"/>
</g>
<!-- ClientsModule -->
<g id="node1" class="node">
<title>ClientsModule</title>
<polygon fill="#8dd3c7" stroke="black" points="274.72,-122 271.72,-126 250.72,-126 247.72,-122 175.28,-122 175.28,-86 274.72,-86 274.72,-122"/>
<text text-anchor="middle" x="225" y="-99.8" font-family="Times,serif" font-size="14.00">ClientsModule</text>
</g>
<!-- BidsModule -->
<g id="node3" class="node">
<title>BidsModule</title>
<polygon fill="#8dd3c7" stroke="black" points="267.72,-187 264.72,-191 243.72,-191 240.72,-187 182.28,-187 182.28,-151 267.72,-151 267.72,-187"/>
<text text-anchor="middle" x="225" y="-164.8" font-family="Times,serif" font-size="14.00">BidsModule</text>
</g>
<!-- ClientsModule&#45;&gt;BidsModule -->
<g id="edge1" class="edge">
<title>ClientsModule&#45;&gt;BidsModule</title>
<path fill="none" stroke="black" d="M225,-122.11C225,-122.11 225,-140.99 225,-140.99"/>
<polygon fill="black" stroke="black" points="221.5,-140.99 225,-150.99 228.5,-140.99 221.5,-140.99"/>
</g>
<!-- DbModule -->
<g id="node2" class="node">
<title>DbModule</title>
<polygon fill="#8dd3c7" stroke="black" points="157.16,-122 154.16,-126 133.16,-126 130.16,-122 80.84,-122 80.84,-86 157.16,-86 157.16,-122"/>
<text text-anchor="middle" x="119" y="-99.8" font-family="Times,serif" font-size="14.00">DbModule</text>
</g>
<!-- DbModule&#45;&gt;BidsModule -->
<g id="edge2" class="edge">
<title>DbModule&#45;&gt;BidsModule</title>
<path fill="none" stroke="black" d="M119,-122.11C119,-141.34 119,-169 119,-169 119,-169 172.19,-169 172.19,-169"/>
<polygon fill="black" stroke="black" points="172.19,-172.5 182.19,-169 172.19,-165.5 172.19,-172.5"/>
</g>
<!-- BidsService -->
<g id="node4" class="node">
<title>BidsService</title>
<ellipse fill="#fdb462" stroke="black" cx="357" cy="-104" rx="57.9" ry="18"/>
<text text-anchor="middle" x="357" y="-99.8" font-family="Times,serif" font-size="14.00">BidsService</text>
</g>
<!-- BidsService&#45;&gt;BidsModule -->
<g id="edge3" class="edge">
<title>BidsService&#45;&gt;BidsModule</title>
<path fill="none" stroke="black" d="M357,-122.11C357,-141.34 357,-169 357,-169 357,-169 277.86,-169 277.86,-169"/>
<polygon fill="black" stroke="black" points="277.86,-165.5 267.86,-169 277.86,-172.5 277.86,-165.5"/>
</g>
</g>
</svg>
