<?xml version="1.0" encoding="UTF-8" standalone="no"?>
<!DOCTYPE svg PUBLIC "-//W3C//DTD SVG 1.1//EN"
 "http://www.w3.org/Graphics/SVG/1.1/DTD/svg11.dtd">
<!-- Generated by graphviz version 2.47.0 (20210316.0004)
 -->
<!-- Title: dependencies Pages: 1 -->
<svg width="799pt" height="211pt"
 viewBox="0.00 0.00 799.00 211.00" xmlns="http://www.w3.org/2000/svg" xmlns:xlink="http://www.w3.org/1999/xlink">
<g id="graph0" class="graph" transform="scale(1 1) rotate(0) translate(4 207)">
<title>dependencies</title>
<polygon fill="white" stroke="transparent" points="-4,4 -4,-207 795,-207 795,4 -4,4"/>
<text text-anchor="start" x="374.51" y="-42.4" font-family="Times-12" font-weight="bold" font-size="14.00">Legend</text>
<polygon fill="#ffffb3" stroke="transparent" points="161.5,-10 161.5,-30 181.5,-30 181.5,-10 161.5,-10"/>
<text text-anchor="start" x="185.13" y="-15.4" font-family="Times-12" font-size="14.00"> &#160;Declarations</text>
<polygon fill="#8dd3c7" stroke="transparent" points="274.5,-10 274.5,-30 294.5,-30 294.5,-10 274.5,-10"/>
<text text-anchor="start" x="298.23" y="-15.4" font-family="Times-12" font-size="14.00"> &#160;Module</text>
<polygon fill="#80b1d3" stroke="transparent" points="360.5,-10 360.5,-30 380.5,-30 380.5,-10 360.5,-10"/>
<text text-anchor="start" x="384.28" y="-15.4" font-family="Times-12" font-size="14.00"> &#160;Bootstrap</text>
<polygon fill="#fdb462" stroke="transparent" points="457.5,-10 457.5,-30 477.5,-30 477.5,-10 457.5,-10"/>
<text text-anchor="start" x="481.17" y="-15.4" font-family="Times-12" font-size="14.00"> &#160;Providers</text>
<polygon fill="#fb8072" stroke="transparent" points="553.5,-10 553.5,-30 573.5,-30 573.5,-10 553.5,-10"/>
<text text-anchor="start" x="577.23" y="-15.4" font-family="Times-12" font-size="14.00"> &#160;Exports</text>
<g id="clust1" class="cluster">
<title>cluster_AppModule</title>
<polygon fill="none" stroke="black" stroke-dasharray="1,5" points="8,-70 8,-195 783,-195 783,-70 8,-70"/>
</g>
<g id="clust3" class="cluster">
<title>cluster_AppModule_imports</title>
<polygon fill="none" stroke="black" points="16,-78 16,-130 775,-130 775,-78 16,-78"/>
</g>
<!-- AuthModule -->
<g id="node1" class="node">
<title>AuthModule</title>
<polygon fill="#8dd3c7" stroke="black" points="766.55,-122 763.55,-126 742.55,-126 739.55,-122 679.45,-122 679.45,-86 766.55,-86 766.55,-122"/>
<text text-anchor="middle" x="723" y="-99.8" font-family="Times,serif" font-size="14.00">AuthModule</text>
</g>
<!-- AppModule -->
<g id="node8" class="node">
<title>AppModule</title>
<polygon fill="#8dd3c7" stroke="black" points="444.66,-187 441.66,-191 420.66,-191 417.66,-187 361.34,-187 361.34,-151 444.66,-151 444.66,-187"/>
<text text-anchor="middle" x="403" y="-164.8" font-family="Times,serif" font-size="14.00">AppModule</text>
</g>
<!-- AuthModule&#45;&gt;AppModule -->
<g id="edge1" class="edge">
<title>AuthModule&#45;&gt;AppModule</title>
<path fill="none" stroke="black" d="M723,-122.29C723,-144.21 723,-178 723,-178 723,-178 454.83,-178 454.83,-178"/>
<polygon fill="black" stroke="black" points="454.83,-174.5 444.83,-178 454.83,-181.5 454.83,-174.5"/>
</g>
<!-- BidsModule -->
<g id="node2" class="node">
<title>BidsModule</title>
<polygon fill="#8dd3c7" stroke="black" points="661.72,-122 658.72,-126 637.72,-126 634.72,-122 576.28,-122 576.28,-86 661.72,-86 661.72,-122"/>
<text text-anchor="middle" x="619" y="-99.8" font-family="Times,serif" font-size="14.00">BidsModule</text>
</g>
<!-- BidsModule&#45;&gt;AppModule -->
<g id="edge2" class="edge">
<title>BidsModule&#45;&gt;AppModule</title>
<path fill="none" stroke="black" d="M619,-122.11C619,-141.34 619,-169 619,-169 619,-169 454.9,-169 454.9,-169"/>
<polygon fill="black" stroke="black" points="454.9,-165.5 444.9,-169 454.9,-172.5 454.9,-165.5"/>
</g>
<!-- ClientsModule -->
<g id="node3" class="node">
<title>ClientsModule</title>
<polygon fill="#8dd3c7" stroke="black" points="558.72,-122 555.72,-126 534.72,-126 531.72,-122 459.28,-122 459.28,-86 558.72,-86 558.72,-122"/>
<text text-anchor="middle" x="509" y="-99.8" font-family="Times,serif" font-size="14.00">ClientsModule</text>
</g>
<!-- ClientsModule&#45;&gt;AppModule -->
<g id="edge3" class="edge">
<title>ClientsModule&#45;&gt;AppModule</title>
<path fill="none" stroke="black" d="M509,-122.03C509,-138.4 509,-160 509,-160 509,-160 454.89,-160 454.89,-160"/>
<polygon fill="black" stroke="black" points="454.89,-156.5 444.89,-160 454.89,-163.5 454.89,-156.5"/>
</g>
<!-- DbModule -->
<g id="node4" class="node">
<title>DbModule</title>
<polygon fill="#8dd3c7" stroke="black" points="441.16,-122 438.16,-126 417.16,-126 414.16,-122 364.84,-122 364.84,-86 441.16,-86 441.16,-122"/>
<text text-anchor="middle" x="403" y="-99.8" font-family="Times,serif" font-size="14.00">DbModule</text>
</g>
<!-- DbModule&#45;&gt;AppModule -->
<g id="edge4" class="edge">
<title>DbModule&#45;&gt;AppModule</title>
<path fill="none" stroke="black" d="M403,-122.11C403,-122.11 403,-140.99 403,-140.99"/>
<polygon fill="black" stroke="black" points="399.5,-140.99 403,-150.99 406.5,-140.99 399.5,-140.99"/>
</g>
<!-- NftsModule -->
<g id="node5" class="node">
<title>NftsModule</title>
<polygon fill="#8dd3c7" stroke="black" points="346.65,-122 343.65,-126 322.65,-126 319.65,-122 263.35,-122 263.35,-86 346.65,-86 346.65,-122"/>
<text text-anchor="middle" x="305" y="-99.8" font-family="Times,serif" font-size="14.00">NftsModule</text>
</g>
<!-- NftsModule&#45;&gt;AppModule -->
<g id="edge5" class="edge">
<title>NftsModule&#45;&gt;AppModule</title>
<path fill="none" stroke="black" d="M305,-122.03C305,-138.4 305,-160 305,-160 305,-160 351.15,-160 351.15,-160"/>
<polygon fill="black" stroke="black" points="351.15,-163.5 361.15,-160 351.15,-156.5 351.15,-163.5"/>
</g>
<!-- SellOffersModule -->
<g id="node6" class="node">
<title>SellOffersModule</title>
<polygon fill="#8dd3c7" stroke="black" points="245.58,-122 242.58,-126 221.58,-126 218.58,-122 128.42,-122 128.42,-86 245.58,-86 245.58,-122"/>
<text text-anchor="middle" x="187" y="-99.8" font-family="Times,serif" font-size="14.00">SellOffersModule</text>
</g>
<!-- SellOffersModule&#45;&gt;AppModule -->
<g id="edge6" class="edge">
<title>SellOffersModule&#45;&gt;AppModule</title>
<path fill="none" stroke="black" d="M187,-122.11C187,-141.34 187,-169 187,-169 187,-169 351.1,-169 351.1,-169"/>
<polygon fill="black" stroke="black" points="351.1,-172.5 361.1,-169 351.1,-165.5 351.1,-172.5"/>
</g>
<!-- UserModule -->
<g id="node7" class="node">
<title>UserModule</title>
<polygon fill="#8dd3c7" stroke="black" points="109.98,-122 106.98,-126 85.98,-126 82.98,-122 24.02,-122 24.02,-86 109.98,-86 109.98,-122"/>
<text text-anchor="middle" x="67" y="-99.8" font-family="Times,serif" font-size="14.00">UserModule</text>
</g>
<!-- UserModule&#45;&gt;AppModule -->
<g id="edge7" class="edge">
<title>UserModule&#45;&gt;AppModule</title>
<path fill="none" stroke="black" d="M67,-122.29C67,-144.21 67,-178 67,-178 67,-178 351.12,-178 351.12,-178"/>
<polygon fill="black" stroke="black" points="351.12,-181.5 361.12,-178 351.12,-174.5 351.12,-181.5"/>
</g>
</g>
</svg>
