<?xml version="1.0" encoding="UTF-8" standalone="no"?>
<!DOCTYPE svg PUBLIC "-//W3C//DTD SVG 1.1//EN"
 "http://www.w3.org/Graphics/SVG/1.1/DTD/svg11.dtd">
<!-- Generated by graphviz version 2.47.0 (20210316.0004)
 -->
<!-- Title: dependencies Pages: 1 -->
<svg width="504pt" height="211pt"
 viewBox="0.00 0.00 504.00 211.00" xmlns="http://www.w3.org/2000/svg" xmlns:xlink="http://www.w3.org/1999/xlink">
<g id="graph0" class="graph" transform="scale(1 1) rotate(0) translate(4 207)">
<title>dependencies</title>
<polygon fill="white" stroke="transparent" points="-4,4 -4,-207 500,-207 500,4 -4,4"/>
<text text-anchor="start" x="227.01" y="-42.4" font-family="Times-12" font-weight="bold" font-size="14.00">Legend</text>
<polygon fill="#ffffb3" stroke="transparent" points="14,-10 14,-30 34,-30 34,-10 14,-10"/>
<text text-anchor="start" x="37.63" y="-15.4" font-family="Times-12" font-size="14.00"> &#160;Declarations</text>
<polygon fill="#8dd3c7" stroke="transparent" points="127,-10 127,-30 147,-30 147,-10 127,-10"/>
<text text-anchor="start" x="150.73" y="-15.4" font-family="Times-12" font-size="14.00"> &#160;Module</text>
<polygon fill="#80b1d3" stroke="transparent" points="213,-10 213,-30 233,-30 233,-10 213,-10"/>
<text text-anchor="start" x="236.78" y="-15.4" font-family="Times-12" font-size="14.00"> &#160;Bootstrap</text>
<polygon fill="#fdb462" stroke="transparent" points="310,-10 310,-30 330,-30 330,-10 310,-10"/>
<text text-anchor="start" x="333.67" y="-15.4" font-family="Times-12" font-size="14.00"> &#160;Providers</text>
<polygon fill="#fb8072" stroke="transparent" points="406,-10 406,-30 426,-30 426,-10 406,-10"/>
<text text-anchor="start" x="429.73" y="-15.4" font-family="Times-12" font-size="14.00"> &#160;Exports</text>
<g id="clust1" class="cluster">
<title>cluster_SellOffersModule</title>
<polygon fill="none" stroke="black" stroke-dasharray="1,5" points="102,-70 102,-195 394,-195 394,-70 102,-70"/>
</g>
<g id="clust6" class="cluster">
<title>cluster_SellOffersModule_providers</title>
<polygon fill="none" stroke="black" points="210,-78 210,-130 386,-130 386,-78 210,-78"/>
</g>
<g id="clust3" class="cluster">
<title>cluster_SellOffersModule_imports</title>
<polygon fill="none" stroke="black" points="110,-78 110,-130 202,-130 202,-78 110,-78"/>
</g>
<!-- DbModule -->
<g id="node1" class="node">
<title>DbModule</title>
<polygon fill="#8dd3c7" stroke="black" points="194.16,-122 191.16,-126 170.16,-126 167.16,-122 117.84,-122 117.84,-86 194.16,-86 194.16,-122"/>
<text text-anchor="middle" x="156" y="-99.8" font-family="Times,serif" font-size="14.00">DbModule</text>
</g>
<!-- SellOffersModule -->
<g id="node2" class="node">
<title>SellOffersModule</title>
<polygon fill="#8dd3c7" stroke="black" points="291.58,-187 288.58,-191 267.58,-191 264.58,-187 174.42,-187 174.42,-151 291.58,-151 291.58,-187"/>
<text text-anchor="middle" x="233" y="-164.8" font-family="Times,serif" font-size="14.00">SellOffersModule</text>
</g>
<!-- DbModule&#45;&gt;SellOffersModule -->
<g id="edge1" class="edge">
<title>DbModule&#45;&gt;SellOffersModule</title>
<path fill="none" stroke="black" d="M184.4,-122.11C184.4,-122.11 184.4,-140.99 184.4,-140.99"/>
<polygon fill="black" stroke="black" points="180.9,-140.99 184.4,-150.99 187.9,-140.99 180.9,-140.99"/>
</g>
<!-- SellOffersService -->
<g id="node3" class="node">
<title>SellOffersService</title>
<ellipse fill="#fdb462" stroke="black" cx="298" cy="-104" rx="79.84" ry="18"/>
<text text-anchor="middle" x="298" y="-99.8" font-family="Times,serif" font-size="14.00">SellOffersService</text>
</g>
<!-- SellOffersService&#45;&gt;SellOffersModule -->
<g id="edge2" class="edge">
<title>SellOffersService&#45;&gt;SellOffersModule</title>
<path fill="none" stroke="black" d="M254.93,-119.4C254.93,-119.4 254.93,-140.94 254.93,-140.94"/>
<polygon fill="black" stroke="black" points="251.43,-140.94 254.93,-150.94 258.43,-140.94 251.43,-140.94"/>
</g>
</g>
</svg>
