<?xml version="1.0" encoding="UTF-8" standalone="no"?>
<!DOCTYPE svg PUBLIC "-//W3C//DTD SVG 1.1//EN"
 "http://www.w3.org/Graphics/SVG/1.1/DTD/svg11.dtd">
<!-- Generated by graphviz version 2.47.0 (20210316.0004)
 -->
<!-- Title: dependencies Pages: 1 -->
<svg width="1278pt" height="363pt"
 viewBox="0.00 0.00 1278.00 363.00" xmlns="http://www.w3.org/2000/svg" xmlns:xlink="http://www.w3.org/1999/xlink">
<g id="graph0" class="graph" transform="scale(1 1) rotate(0) translate(4 359)">
<title>dependencies</title>
<polygon fill="white" stroke="transparent" points="-4,4 -4,-359 1274,-359 1274,4 -4,4"/>
<text text-anchor="start" x="614.01" y="-42.4" font-family="Times-12" font-weight="bold" font-size="14.00">Legend</text>
<polygon fill="#ffffb3" stroke="transparent" points="401,-10 401,-30 421,-30 421,-10 401,-10"/>
<text text-anchor="start" x="424.63" y="-15.4" font-family="Times-12" font-size="14.00"> &#160;Declarations</text>
<polygon fill="#8dd3c7" stroke="transparent" points="514,-10 514,-30 534,-30 534,-10 514,-10"/>
<text text-anchor="start" x="537.73" y="-15.4" font-family="Times-12" font-size="14.00"> &#160;Module</text>
<polygon fill="#80b1d3" stroke="transparent" points="600,-10 600,-30 620,-30 620,-10 600,-10"/>
<text text-anchor="start" x="623.78" y="-15.4" font-family="Times-12" font-size="14.00"> &#160;Bootstrap</text>
<polygon fill="#fdb462" stroke="transparent" points="697,-10 697,-30 717,-30 717,-10 697,-10"/>
<text text-anchor="start" x="720.67" y="-15.4" font-family="Times-12" font-size="14.00"> &#160;Providers</text>
<polygon fill="#fb8072" stroke="transparent" points="793,-10 793,-30 813,-30 813,-10 793,-10"/>
<text text-anchor="start" x="816.73" y="-15.4" font-family="Times-12" font-size="14.00"> &#160;Exports</text>
<g id="clust1" class="cluster">
<title>cluster_AppModule</title>
<polygon fill="none" stroke="black" stroke-dasharray="1,5" points="364,-146 364,-347 902,-347 902,-146 364,-146"/>
</g>
<g id="clust3" class="cluster">
<title>cluster_AppModule_imports</title>
<polygon fill="none" stroke="black" points="372,-154 372,-282 894,-282 894,-154 372,-154"/>
</g>
<g id="clust7" class="cluster">
<title>cluster_AuthModule</title>
<polygon fill="none" stroke="black" stroke-dasharray="1,5" points="297,-70 297,-138 447,-138 447,-70 297,-70"/>
</g>
<g id="clust12" class="cluster">
<title>cluster_AuthModule_providers</title>
<polygon fill="none" stroke="black" points="305,-78 305,-130 439,-130 439,-78 305,-78"/>
</g>
<g id="clust13" class="cluster">
<title>cluster_BidsModule</title>
<polygon fill="none" stroke="black" stroke-dasharray="1,5" points="8,-146 8,-214 156,-214 156,-146 8,-146"/>
</g>
<g id="clust18" class="cluster">
<title>cluster_BidsModule_providers</title>
<polygon fill="none" stroke="black" points="16,-154 16,-206 148,-206 148,-154 16,-154"/>
</g>
<g id="clust19" class="cluster">
<title>cluster_ClientsModule</title>
<polygon fill="none" stroke="black" stroke-dasharray="1,5" points="910,-222 910,-290 1090,-290 1090,-222 910,-222"/>
</g>
<g id="clust22" class="cluster">
<title>cluster_ClientsModule_exports</title>
<polygon fill="none" stroke="black" points="1012,-230 1012,-282 1082,-282 1082,-230 1012,-230"/>
</g>
<g id="clust24" class="cluster">
<title>cluster_ClientsModule_providers</title>
<polygon fill="none" stroke="black" points="918,-230 918,-282 1004,-282 1004,-230 918,-230"/>
</g>
<g id="clust25" class="cluster">
<title>cluster_DbModule</title>
<polygon fill="none" stroke="black" stroke-dasharray="1,5" points="1098,-222 1098,-290 1262,-290 1262,-222 1098,-222"/>
</g>
<g id="clust28" class="cluster">
<title>cluster_DbModule_exports</title>
<polygon fill="none" stroke="black" points="1184,-230 1184,-282 1254,-282 1254,-230 1184,-230"/>
</g>
<g id="clust30" class="cluster">
<title>cluster_DbModule_providers</title>
<polygon fill="none" stroke="black" points="1106,-230 1106,-282 1176,-282 1176,-230 1106,-230"/>
</g>
<g id="clust31" class="cluster">
<title>cluster_NftsModule</title>
<polygon fill="none" stroke="black" stroke-dasharray="1,5" points="455,-70 455,-138 601,-138 601,-70 455,-70"/>
</g>
<g id="clust36" class="cluster">
<title>cluster_NftsModule_providers</title>
<polygon fill="none" stroke="black" points="463,-78 463,-130 593,-130 593,-78 463,-78"/>
</g>
<g id="clust37" class="cluster">
<title>cluster_SellOffersModule</title>
<polygon fill="none" stroke="black" stroke-dasharray="1,5" points="164,-146 164,-214 356,-214 356,-146 164,-146"/>
</g>
<g id="clust42" class="cluster">
<title>cluster_SellOffersModule_providers</title>
<polygon fill="none" stroke="black" points="172,-154 172,-206 348,-206 348,-154 172,-154"/>
</g>
<g id="clust43" class="cluster">
<title>cluster_UserModule</title>
<polygon fill="none" stroke="black" stroke-dasharray="1,5" points="609,-70 609,-138 757,-138 757,-70 609,-70"/>
</g>
<g id="clust48" class="cluster">
<title>cluster_UserModule_providers</title>
<polygon fill="none" stroke="black" points="617,-78 617,-130 749,-130 749,-78 617,-78"/>
</g>
<!-- AuthModule -->
<g id="node1" class="node">
<title>AuthModule</title>
<polygon fill="#8dd3c7" stroke="black" points="467.55,-198 464.55,-202 443.55,-202 440.55,-198 380.45,-198 380.45,-162 467.55,-162 467.55,-198"/>
<text text-anchor="middle" x="424" y="-175.8" font-family="Times,serif" font-size="14.00">AuthModule</text>
</g>
<!-- AppModule -->
<g id="node8" class="node">
<title>AppModule</title>
<polygon fill="#8dd3c7" stroke="black" points="712.66,-339 709.66,-343 688.66,-343 685.66,-339 629.34,-339 629.34,-303 712.66,-303 712.66,-339"/>
<text text-anchor="middle" x="671" y="-316.8" font-family="Times,serif" font-size="14.00">AppModule</text>
</g>
<!-- AuthModule&#45;&gt;AppModule -->
<g id="edge1" class="edge">
<title>AuthModule&#45;&gt;AppModule</title>
<path fill="none" stroke="black" d="M395.81,-198.09C395.81,-237.99 395.81,-330 395.81,-330 395.81,-330 619.2,-330 619.2,-330"/>
<polygon fill="black" stroke="black" points="619.2,-333.5 629.2,-330 619.2,-326.5 619.2,-333.5"/>
</g>
<!-- BidsModule -->
<g id="node2" class="node">
<title>BidsModule</title>
<polygon fill="#8dd3c7" stroke="black" points="496.72,-274 493.72,-278 472.72,-278 469.72,-274 411.28,-274 411.28,-238 496.72,-238 496.72,-274"/>
<text text-anchor="middle" x="454" y="-251.8" font-family="Times,serif" font-size="14.00">BidsModule</text>
</g>
<!-- BidsModule&#45;&gt;AppModule -->
<g id="edge2" class="edge">
<title>BidsModule&#45;&gt;AppModule</title>
<path fill="none" stroke="black" d="M454,-274.11C454,-293.34 454,-321 454,-321 454,-321 619.16,-321 619.16,-321"/>
<polygon fill="black" stroke="black" points="619.16,-324.5 629.16,-321 619.16,-317.5 619.16,-324.5"/>
</g>
<!-- ClientsModule -->
<g id="node3" class="node">
<title>ClientsModule</title>
<polygon fill="#8dd3c7" stroke="black" points="791.72,-198 788.72,-202 767.72,-202 764.72,-198 692.28,-198 692.28,-162 791.72,-162 791.72,-198"/>
<text text-anchor="middle" x="742" y="-175.8" font-family="Times,serif" font-size="14.00">ClientsModule</text>
</g>
<!-- ClientsModule&#45;&gt;BidsModule -->
<g id="edge9" class="edge">
<title>ClientsModule&#45;&gt;BidsModule</title>
<path fill="none" stroke="black" d="M699.2,-198.06C699.2,-209.44 699.2,-222 699.2,-222 699.2,-222 489.65,-222 489.65,-222 489.65,-222 489.65,-227.81 489.65,-227.81"/>
<polygon fill="black" stroke="black" points="486.15,-227.81 489.65,-237.81 493.15,-227.81 486.15,-227.81"/>
</g>
<!-- ClientsModule&#45;&gt;AppModule -->
<g id="edge3" class="edge">
<title>ClientsModule&#45;&gt;AppModule</title>
<path fill="none" stroke="black" d="M706.02,-198.14C706.02,-198.14 706.02,-292.93 706.02,-292.93"/>
<polygon fill="black" stroke="black" points="702.52,-292.92 706.02,-302.93 709.52,-292.93 702.52,-292.92"/>
</g>
<!-- Client  -->
<g id="node11" class="node">
<title>Client </title>
<polygon fill="#fb8072" stroke="black" points="1074,-274 1020,-274 1020,-238 1074,-238 1074,-274"/>
<text text-anchor="middle" x="1047" y="-251.8" font-family="Times,serif" font-size="14.00">Client </text>
</g>
<!-- ClientsModule&#45;&gt;Client  -->
<g id="edge12" class="edge">
<title>ClientsModule&#45;&gt;Client </title>
<path fill="none" stroke="black" stroke-dasharray="5,2" d="M739.09,-198.19C739.09,-206.28 739.09,-214 739.09,-214 739.09,-214 1047,-214 1047,-214 1047,-214 1047,-227.94 1047,-227.94"/>
<polygon fill="black" stroke="black" points="1043.5,-227.94 1047,-237.94 1050.5,-227.94 1043.5,-227.94"/>
</g>
<!-- DbModule -->
<g id="node4" class="node">
<title>DbModule</title>
<polygon fill="#8dd3c7" stroke="black" points="886.16,-198 883.16,-202 862.16,-202 859.16,-198 809.84,-198 809.84,-162 886.16,-162 886.16,-198"/>
<text text-anchor="middle" x="848" y="-175.8" font-family="Times,serif" font-size="14.00">DbModule</text>
</g>
<!-- DbModule&#45;&gt;BidsModule -->
<g id="edge10" class="edge">
<title>DbModule&#45;&gt;BidsModule</title>
<path fill="none" stroke="black" d="M828.84,-198.05C828.84,-212.37 828.84,-230 828.84,-230 828.84,-230 493.13,-230 493.13,-230 493.13,-230 493.13,-230.79 493.13,-230.79"/>
<polygon fill="black" stroke="black" points="489.63,-227.94 493.13,-237.94 496.63,-227.94 489.63,-227.94"/>
</g>
<!-- SellOffersModule -->
<g id="node6" class="node">
<title>SellOffersModule</title>
<polygon fill="#8dd3c7" stroke="black" points="631.58,-274 628.58,-278 607.58,-278 604.58,-274 514.42,-274 514.42,-238 631.58,-238 631.58,-274"/>
<text text-anchor="middle" x="573" y="-251.8" font-family="Times,serif" font-size="14.00">SellOffersModule</text>
</g>
<!-- DbModule&#45;&gt;SellOffersModule -->
<g id="edge17" class="edge">
<title>DbModule&#45;&gt;SellOffersModule</title>
<path fill="none" stroke="black" d="M848,-198.31C848,-218.15 848,-247 848,-247 848,-247 641.66,-247 641.66,-247"/>
<polygon fill="black" stroke="black" points="641.66,-243.5 631.66,-247 641.66,-250.5 641.66,-243.5"/>
</g>
<!-- DbModule&#45;&gt;AppModule -->
<g id="edge4" class="edge">
<title>DbModule&#45;&gt;AppModule</title>
<path fill="none" stroke="black" d="M867.16,-198.14C867.16,-236.23 867.16,-321 867.16,-321 867.16,-321 723.08,-321 723.08,-321"/>
<polygon fill="black" stroke="black" points="723.08,-317.5 713.08,-321 723.08,-324.5 723.08,-317.5"/>
</g>
<!-- Db  -->
<g id="node13" class="node">
<title>Db </title>
<polygon fill="#fb8072" stroke="black" points="1246,-274 1192,-274 1192,-238 1246,-238 1246,-274"/>
<text text-anchor="middle" x="1219" y="-251.8" font-family="Times,serif" font-size="14.00">Db </text>
</g>
<!-- DbModule&#45;&gt;Db  -->
<g id="edge14" class="edge">
<title>DbModule&#45;&gt;Db </title>
<path fill="none" stroke="black" stroke-dasharray="5,2" d="M886.31,-174C981.1,-174 1219,-174 1219,-174 1219,-174 1219,-227.8 1219,-227.8"/>
<polygon fill="black" stroke="black" points="1215.5,-227.8 1219,-237.8 1222.5,-227.8 1215.5,-227.8"/>
</g>
<!-- NftsModule -->
<g id="node5" class="node">
<title>NftsModule</title>
<polygon fill="#8dd3c7" stroke="black" points="569.65,-198 566.65,-202 545.65,-202 542.65,-198 486.35,-198 486.35,-162 569.65,-162 569.65,-198"/>
<text text-anchor="middle" x="528" y="-175.8" font-family="Times,serif" font-size="14.00">NftsModule</text>
</g>
<!-- NftsModule&#45;&gt;AppModule -->
<g id="edge5" class="edge">
<title>NftsModule&#45;&gt;AppModule</title>
<path fill="none" stroke="black" d="M505.54,-198.08C505.54,-234.23 505.54,-312 505.54,-312 505.54,-312 619.25,-312 619.25,-312"/>
<polygon fill="black" stroke="black" points="619.25,-315.5 629.25,-312 619.25,-308.5 619.25,-315.5"/>
</g>
<!-- SellOffersModule&#45;&gt;AppModule -->
<g id="edge6" class="edge">
<title>SellOffersModule&#45;&gt;AppModule</title>
<path fill="none" stroke="black" d="M631.67,-265C639.94,-265 645.69,-265 645.69,-265 645.69,-265 645.69,-292.97 645.69,-292.97"/>
<polygon fill="black" stroke="black" points="642.19,-292.97 645.69,-302.97 649.19,-292.97 642.19,-292.97"/>
</g>
<!-- UserModule -->
<g id="node7" class="node">
<title>UserModule</title>
<polygon fill="#8dd3c7" stroke="black" points="673.98,-198 670.98,-202 649.98,-202 646.98,-198 588.02,-198 588.02,-162 673.98,-162 673.98,-198"/>
<text text-anchor="middle" x="631" y="-175.8" font-family="Times,serif" font-size="14.00">UserModule</text>
</g>
<!-- UserModule&#45;&gt;AppModule -->
<g id="edge7" class="edge">
<title>UserModule&#45;&gt;AppModule</title>
<path fill="none" stroke="black" d="M659.84,-198.14C659.84,-198.14 659.84,-292.93 659.84,-292.93"/>
<polygon fill="black" stroke="black" points="656.34,-292.92 659.84,-302.93 663.34,-292.93 656.34,-292.92"/>
</g>
<!-- AuthService -->
<g id="node9" class="node">
<title>AuthService</title>
<ellipse fill="#fdb462" stroke="black" cx="372" cy="-104" rx="59.11" ry="18"/>
<text text-anchor="middle" x="372" y="-99.8" font-family="Times,serif" font-size="14.00">AuthService</text>
</g>
<!-- AuthService&#45;&gt;AuthModule -->
<g id="edge8" class="edge">
<title>AuthService&#45;&gt;AuthModule</title>
<path fill="none" stroke="black" d="M405.77,-119.02C405.77,-119.02 405.77,-151.8 405.77,-151.8"/>
<polygon fill="black" stroke="black" points="402.27,-151.8 405.77,-161.8 409.27,-151.8 402.27,-151.8"/>
</g>
<!-- BidsService -->
<g id="node10" class="node">
<title>BidsService</title>
<ellipse fill="#fdb462" stroke="black" cx="82" cy="-180" rx="57.9" ry="18"/>
<text text-anchor="middle" x="82" y="-175.8" font-family="Times,serif" font-size="14.00">BidsService</text>
</g>
<!-- BidsService&#45;&gt;BidsModule -->
<g id="edge11" class="edge">
<title>BidsService&#45;&gt;BidsModule</title>
<path fill="none" stroke="black" d="M82,-198.01C82,-220.49 82,-256 82,-256 82,-256 401.33,-256 401.33,-256"/>
<polygon fill="black" stroke="black" points="401.33,-259.5 411.33,-256 401.33,-252.5 401.33,-259.5"/>
</g>
<!-- Client -->
<g id="node12" class="node">
<title>Client</title>
<ellipse fill="#fdb462" stroke="black" cx="961" cy="-256" rx="34.79" ry="18"/>
<text text-anchor="middle" x="961" y="-251.8" font-family="Times,serif" font-size="14.00">Client</text>
</g>
<!-- Client&#45;&gt;ClientsModule -->
<g id="edge13" class="edge">
<title>Client&#45;&gt;ClientsModule</title>
<path fill="none" stroke="black" d="M926.02,-256C869.75,-256 765.35,-256 765.35,-256 765.35,-256 765.35,-208.01 765.35,-208.01"/>
<polygon fill="black" stroke="black" points="768.85,-208.01 765.35,-198.01 761.85,-208.01 768.85,-208.01"/>
</g>
<!-- Db -->
<g id="node14" class="node">
<title>Db</title>
<ellipse fill="#fdb462" stroke="black" cx="1141" cy="-256" rx="27" ry="18"/>
<text text-anchor="middle" x="1141" y="-251.8" font-family="Times,serif" font-size="14.00">Db</text>
</g>
<!-- Db&#45;&gt;DbModule -->
<g id="edge15" class="edge">
<title>Db&#45;&gt;DbModule</title>
<path fill="none" stroke="black" d="M1141,-237.97C1141,-217.23 1141,-186 1141,-186 1141,-186 896.3,-186 896.3,-186"/>
<polygon fill="black" stroke="black" points="896.3,-182.5 886.3,-186 896.3,-189.5 896.3,-182.5"/>
</g>
<!-- NftsService -->
<g id="node15" class="node">
<title>NftsService</title>
<ellipse fill="#fdb462" stroke="black" cx="528" cy="-104" rx="56.73" ry="18"/>
<text text-anchor="middle" x="528" y="-99.8" font-family="Times,serif" font-size="14.00">NftsService</text>
</g>
<!-- NftsService&#45;&gt;NftsModule -->
<g id="edge16" class="edge">
<title>NftsService&#45;&gt;NftsModule</title>
<path fill="none" stroke="black" d="M528,-122.01C528,-122.01 528,-151.85 528,-151.85"/>
<polygon fill="black" stroke="black" points="524.5,-151.85 528,-161.85 531.5,-151.85 524.5,-151.85"/>
</g>
<!-- SellOffersService -->
<g id="node16" class="node">
<title>SellOffersService</title>
<ellipse fill="#fdb462" stroke="black" cx="260" cy="-180" rx="79.84" ry="18"/>
<text text-anchor="middle" x="260" y="-175.8" font-family="Times,serif" font-size="14.00">SellOffersService</text>
</g>
<!-- SellOffersService&#45;&gt;SellOffersModule -->
<g id="edge18" class="edge">
<title>SellOffersService&#45;&gt;SellOffersModule</title>
<path fill="none" stroke="black" d="M260,-198.06C260,-202.49 260,-206 260,-206 260,-206 542.14,-206 542.14,-206 542.14,-206 542.14,-227.95 542.14,-227.95"/>
<polygon fill="black" stroke="black" points="538.64,-227.95 542.14,-237.95 545.64,-227.95 538.64,-227.95"/>
</g>
<!-- UserService -->
<g id="node17" class="node">
<title>UserService</title>
<ellipse fill="#fdb462" stroke="black" cx="683" cy="-104" rx="58.44" ry="18"/>
<text text-anchor="middle" x="683" y="-99.8" font-family="Times,serif" font-size="14.00">UserService</text>
</g>
<!-- UserService&#45;&gt;UserModule -->
<g id="edge19" class="edge">
<title>UserService&#45;&gt;UserModule</title>
<path fill="none" stroke="black" d="M649.38,-119.02C649.38,-119.02 649.38,-151.8 649.38,-151.8"/>
<polygon fill="black" stroke="black" points="645.88,-151.8 649.38,-161.8 652.88,-151.8 645.88,-151.8"/>
</g>
</g>
</svg>
